# xmcd
#
# Track frame offsets:
#	150
#	19445
#	41807
#	61442
#	82565
#	103770
#	124707
#	143132
#	163922
#	183175
#	203052
#	223412
#	242385
#	260400
#
# Disc length: 3771 seconds
#
# Revision: 1
# Processed by: cddbd v1.5.1PL0 Copyright (c) Steve Scherf et al.
# Submitted via: CDex 1.50Beta5
#
DISCID=c60eb90e
DTITLE=松原のぶえ - 特選集 松原のぶえ/朝顔
DYEAR=1993
DGENRE=World
TTITLE0=朝顔
TTITLE1=無情の海
TTITLE2=愛冠岬
TTITLE3=蛍
TTITLE4=演歌みち
TTITLE5=おんなの出船
TTITLE6=夫婦坂
TTITLE7=大阪つばめ
TTITLE8=雨の港
TTITLE9=命くれない
TTITLE10=時の流れに身をまかせ
TTITLE11=真夜中のシャワー
TTITLE12=風のエレジー
TTITLE13=五月の風のように
EXTD=
EXTT0=
EXTT1=
EXTT2=
EXTT3=
EXTT4=
EXTT5=
EXTT6=
EXTT7=
EXTT8=
EXTT9=
EXTT10=
EXTT11=
EXTT12=
EXTT13=
PLAYORDER=
